<?xml version="1.0" encoding="utf-8"?>
<!-- Generator: Adobe Illustrator 24.1.3, SVG Export Plug-In . SVG Version: 6.00 Build 0)  -->
<svg version="1.1" id="Icon" xmlns="http://www.w3.org/2000/svg" xmlns:xlink="http://www.w3.org/1999/xlink" x="0px" y="0px"
	 viewBox="0 0 141.73 141.73" style="enable-background:new 0 0 141.73 141.73;" xml:space="preserve">
<style type="text/css">
</style>
<g>
	<g>
		<path class="st0" d="M77.13,49.45c-0.94,0-1.7-0.76-1.7-1.7V21.61h-9.84v26.14c0,0.94-0.76,1.7-1.7,1.7s-1.7-0.76-1.7-1.7V19.91
			c0-0.94,0.76-1.7,1.7-1.7h13.24c0.94,0,1.7,0.76,1.7,1.7v27.84C78.83,48.69,78.07,49.45,77.13,49.45z"/>
	</g>
	<g>
		<path class="st0" d="M70.69,98.93c-18.01,0-32.67-14.45-32.67-32.21c0-2.18,0.22-4.37,0.67-6.5c0.19-0.92,1.1-1.51,2.01-1.32
			c0.92,0.19,1.51,1.09,1.32,2.01c-0.39,1.9-0.59,3.85-0.59,5.81c0,15.88,13.13,28.8,29.26,28.8s29.26-12.92,29.26-28.8
			c0-2.06-0.22-4.13-0.66-6.12c-0.2-0.92,0.38-1.82,1.3-2.03c0.92-0.2,1.82,0.38,2.03,1.3c0.49,2.24,0.74,4.54,0.74,6.85
			C103.35,84.48,88.7,98.93,70.69,98.93z"/>
	</g>
	<g>
		<path class="st0" d="M107.02,124.94H34.71c-0.94,0-1.7-0.76-1.7-1.7c0-13.29,7.6-25.48,19.84-31.82c0.83-0.43,1.86-0.11,2.29,0.73
			c0.43,0.83,0.11,1.86-0.73,2.29c-10.58,5.48-17.34,15.75-17.96,27.1h68.82c-0.63-11.71-7.7-22.14-18.78-27.51
			c-0.84-0.41-1.2-1.43-0.79-2.27c0.41-0.85,1.43-1.2,2.27-0.79c12.8,6.21,20.75,18.57,20.75,32.27
			C108.72,124.18,107.96,124.94,107.02,124.94z"/>
	</g>
	<g>
		<path class="st0" d="M106.45,61.77H34.99c-0.94,0-1.7-0.76-1.7-1.7V49.6c0-0.94,0.76-1.7,1.7-1.7h4.04
			c0.87-4.99,5.05-20.19,23.8-23.49c0.94-0.16,1.81,0.45,1.97,1.38c0.16,0.93-0.45,1.81-1.38,1.97
			c-19.8,3.49-21.2,21.77-21.21,21.95c-0.06,0.9-0.8,1.59-1.7,1.59h-3.82v7.07h68.06V51.3h-4.35c-0.89,0-1.63-0.69-1.7-1.58
			c-0.06-0.74-1.6-18.31-21.46-22.18c-0.92-0.18-1.52-1.07-1.34-1.99c0.18-0.92,1.08-1.53,1.99-1.34
			c11.72,2.29,17.68,9.02,20.62,14.27c2.15,3.85,3.03,7.45,3.37,9.42h4.57c0.94,0,1.7,0.76,1.7,1.7v10.48
			C108.15,61.01,107.39,61.77,106.45,61.77z"/>
	</g>
</g>
</svg>
