<?xml version="1.0" encoding="utf-8"?>
<!-- Generator: Adobe Illustrator 24.1.3, SVG Export Plug-In . SVG Version: 6.00 Build 0)  -->
<svg version="1.1" id="Icon" xmlns="http://www.w3.org/2000/svg" xmlns:xlink="http://www.w3.org/1999/xlink" x="0px" y="0px"
	 viewBox="0 0 141.73 141.73" style="enable-background:new 0 0 141.73 141.73;" xml:space="preserve">
<g>
	<path class="st0" d="M70.87,126.61c-30.74,0-55.74-25-55.74-55.74c0-30.73,25-55.74,55.74-55.74c30.73,0,55.74,25,55.74,55.74
		C126.61,101.6,101.6,126.61,70.87,126.61z M70.87,18.53c-28.86,0-52.34,23.48-52.34,52.34s23.48,52.34,52.34,52.34
		s52.34-23.48,52.34-52.34S99.73,18.53,70.87,18.53z"/>
</g>
<g>
	<g>
		<path class="st0" d="M71.66,102.11c-8.85,0-17.2-3.97-22.91-10.9c-0.25-0.3-0.38-0.68-0.38-1.07V74.96c0-0.19,0.03-0.37,0.09-0.54
			L28.13,64.26c-0.57-0.28-0.93-0.86-0.93-1.5c0-0.63,0.35-1.22,0.92-1.5L70.28,39.8c0.48-0.24,1.05-0.25,1.53,0l41.8,21.33
			c0.56,0.28,0.91,0.85,0.92,1.48c0.01,0.63-0.34,1.2-0.89,1.5l-9.71,5.2v12.43c0,0.93-0.75,1.68-1.68,1.68s-1.68-0.75-1.68-1.68
			V68.3c0-0.62,0.34-1.19,0.89-1.48l7.76-4.15L71.05,43.19L32.61,62.74L71.53,82.2l20.99-10.59c0.52-0.26,1.14-0.24,1.64,0.07
			c0.5,0.31,0.8,0.85,0.8,1.43v17.04c0,0.39-0.14,0.77-0.38,1.07C88.86,98.14,80.51,102.11,71.66,102.11z M51.72,89.53
			c5.05,5.87,12.29,9.22,19.93,9.22c7.65,0,14.88-3.35,19.93-9.21V75.84l-19.31,9.74c-0.47,0.24-1.04,0.24-1.51,0l-19.05-9.53V89.53
			z"/>
	</g>
	<g>
		<path class="st0" d="M102.23,91.95c-3.05,0-5.54-2.52-5.54-5.63s2.48-5.63,5.54-5.63s5.54,2.53,5.54,5.63
			S105.29,91.95,102.23,91.95z M102.23,84.06c-1.2,0-2.17,1.02-2.17,2.26c0,1.25,0.98,2.26,2.17,2.26c1.2,0,2.17-1.02,2.17-2.26
			C104.41,85.07,103.43,84.06,102.23,84.06z"/>
	</g>
</g>
</svg>
