<?xml version="1.0" encoding="utf-8"?>
<!-- Generator: Adobe Illustrator 24.1.3, SVG Export Plug-In . SVG Version: 6.00 Build 0)  -->
<svg version="1.1" id="Icon" xmlns="http://www.w3.org/2000/svg" xmlns:xlink="http://www.w3.org/1999/xlink" x="0px" y="0px"
	 viewBox="0 0 141.73 141.73" style="enable-background:new 0 0 141.73 141.73;" xml:space="preserve">
<g>
	<g>
		<g>
			<g>
				<g>
					<path class="st0" d="M91.17,67.2c-0.52,0-1.04-0.24-1.37-0.69c-2.01-2.71-4.61-4.84-7.74-6.33c-0.85-0.4-1.21-1.42-0.8-2.27
						c0.4-0.85,1.42-1.21,2.27-0.8c3.64,1.73,6.67,4.22,9.01,7.38c0.56,0.75,0.4,1.82-0.36,2.38C91.88,67.09,91.53,67.2,91.17,67.2z
						"/>
				</g>
				<g>
					<path class="st0" d="M80.88,80.94H64.47c-0.94,0-1.7-0.76-1.7-1.7s0.76-1.7,1.7-1.7h16.41c0.94,0,1.7,0.76,1.7,1.7
						S81.82,80.94,80.88,80.94z"/>
				</g>
				<g>
					<path class="st0" d="M51.38,65.78c-0.44,0-0.87-0.17-1.2-0.5c-0.66-0.67-0.66-1.74,0-2.41c2.63-2.63,5.8-4.7,9.41-6.15
						c0.87-0.35,1.86,0.07,2.21,0.94c0.35,0.87-0.07,1.86-0.94,2.21c-3.14,1.27-6,3.14-8.28,5.41
						C52.25,65.61,51.81,65.78,51.38,65.78z"/>
				</g>
			</g>
			<g>
				<path class="st0" d="M71.79,63.29c-13.33,0-24.17-10.84-24.17-24.17c0-13.33,10.84-24.17,24.17-24.17S95.95,25.8,95.95,39.12
					C95.95,52.45,85.11,63.29,71.79,63.29z M71.79,18.36c-11.45,0-20.76,9.31-20.76,20.76s9.31,20.77,20.76,20.77
					c11.45,0,20.76-9.32,20.76-20.77S83.24,18.36,71.79,18.36z"/>
			</g>
		</g>
	</g>
	<g>
		<g>
			<g>
				<g>
					<path class="st0" d="M126.45,126.75H75.72c-0.94,0-1.7-0.76-1.7-1.7c0-9.71,6.51-18.58,16.58-22.58
						c0.88-0.35,1.86,0.08,2.21,0.95c0.35,0.87-0.08,1.86-0.95,2.21c-8.17,3.24-13.64,10.07-14.35,17.71h47.18
						c-0.55-7.54-4.74-13.89-11.46-17.21c-0.84-0.42-1.19-1.44-0.77-2.28c0.42-0.84,1.44-1.19,2.28-0.77
						c8.4,4.16,13.41,12.37,13.41,21.96C128.15,125.98,127.39,126.75,126.45,126.75z"/>
				</g>
			</g>
			<g>
				<path class="st0" d="M102.66,109.1c-13.33,0-24.17-10.84-24.17-24.17s10.84-24.17,24.17-24.17s24.17,10.84,24.17,24.17
					S115.98,109.1,102.66,109.1z M102.66,64.17c-11.45,0-20.76,9.31-20.76,20.76s9.31,20.76,20.76,20.76s20.76-9.31,20.76-20.76
					S114.11,64.17,102.66,64.17z"/>
			</g>
		</g>
	</g>
	<g>
		<g>
			<g>
				<g>
					<path class="st0" d="M66.01,126.78H15.28c-0.94,0-1.7-0.76-1.7-1.7c0-9.55,6.35-18.34,16.18-22.41
						c0.87-0.36,1.86,0.05,2.22,0.92c0.36,0.87-0.05,1.86-0.92,2.22c-7.95,3.29-13.29,10.07-14,17.57h47.18
						c-0.55-7.63-4.83-14.03-11.67-17.32c-0.85-0.41-1.2-1.42-0.79-2.27c0.41-0.85,1.43-1.2,2.27-0.79
						c8.55,4.12,13.66,12.37,13.66,22.09C67.71,126.02,66.95,126.78,66.01,126.78z"/>
				</g>
			</g>
			<g>
				<path class="st0" d="M42.22,109.13c-13.33,0-24.17-10.84-24.17-24.17s10.84-24.17,24.17-24.17s24.17,10.84,24.17,24.17
					S55.54,109.13,42.22,109.13z M42.22,64.2c-11.45,0-20.76,9.31-20.76,20.76s9.31,20.76,20.76,20.76
					c11.45,0,20.76-9.31,20.76-20.76S53.67,64.2,42.22,64.2z"/>
			</g>
		</g>
	</g>
	<g>
		<g>
			<path class="st0" d="M64.36,33.31c0-3.55,2.25-6.09,6.07-6.66v-1.09c0-0.72,0.05-1.02,0.23-1.35c0.24-0.41,0.7-0.68,1.27-0.68
				c0.57,0,1.03,0.28,1.27,0.68c0.2,0.33,0.23,0.64,0.23,1.35v1.03c1.48,0.13,2.62,0.54,4.14,1.32c0.81,0.42,1.42,1.02,1.42,1.77
				c0,0.38-0.13,0.75-0.41,1.08c-0.26,0.31-0.6,0.51-1.07,0.51c-0.37,0-0.94-0.21-1.42-0.51c-0.96-0.59-1.79-0.89-2.75-1.04v7.03
				l0.6,0.08c2.12,0.33,3.29,0.81,4.3,1.73c1.24,1.14,1.89,2.74,1.89,4.75c0,3.78-2.7,6.2-6.69,6.71v1.73
				c0,0.72-0.03,1.02-0.23,1.35c-0.24,0.41-0.7,0.68-1.27,0.68c-0.57,0-1.03-0.28-1.27-0.68c-0.18-0.33-0.23-0.64-0.23-1.35v-1.68
				c-2.04-0.15-3.47-0.67-4.88-1.52c-1.21-0.72-1.64-1.2-1.64-2.05c0-0.39,0.18-0.85,0.49-1.16c0.29-0.29,0.65-0.42,1.03-0.42
				c0.46,0,0.86,0.15,1.5,0.59c1.19,0.83,2.28,1.27,3.61,1.42v-7.28l-0.08-0.02c-1.87-0.28-3.29-0.86-4.38-1.87
				C64.92,36.7,64.36,35.2,64.36,33.31z M68.63,35.37c0.49,0.42,1.03,0.72,1.91,0.91v-6.5c-1.81,0.44-2.75,1.73-2.75,3.44
				C67.78,34.06,68.03,34.83,68.63,35.37z M75.73,41c-0.54-0.47-1.24-0.75-2.39-0.94v6.82c2.12-0.36,3.31-1.58,3.31-3.47
				C76.64,42.37,76.38,41.55,75.73,41z"/>
		</g>
	</g>
</g>
</svg>
