<?xml version="1.0" encoding="utf-8"?>
<!-- Generator: Adobe Illustrator 24.1.3, SVG Export Plug-In . SVG Version: 6.00 Build 0)  -->
<svg version="1.1" id="Icon" xmlns="http://www.w3.org/2000/svg" xmlns:xlink="http://www.w3.org/1999/xlink" x="0px" y="0px"
	 viewBox="0 0 141.73 141.73" style="enable-background:new 0 0 141.73 141.73;" xml:space="preserve">
<g>
	<path class="st0" d="M128.91,51.11c-0.88-15.01-12.87-29.94-31.42-28.91c-11.32,0.61-19.44,11.18-22.64,16.14
		c-3.22-4.94-11.37-15.46-22.69-16.02C33.6,21.47,21.67,36.41,20.84,51.39c-0.25,4.49,0.76,9.3,2.99,14.31
		c0.38,0.86,1.39,1.24,2.25,0.86c0.86-0.38,1.24-1.39,0.86-2.25c-2.01-4.51-2.92-8.8-2.7-12.74c0.74-13.32,11.33-26.67,27.75-25.85
		c12.58,0.61,21.28,16.56,21.36,16.72c0.3,0.55,0.87,0.9,1.5,0.9c0,0,0,0,0,0c0.63,0,1.2-0.35,1.5-0.9
		c0.09-0.16,8.74-16.16,21.32-16.84c16.4-0.9,27.06,12.36,27.84,25.71c0.78,13.28-11.12,26.95-20.14,36.08
		C93.91,99,86.57,105.34,81.22,109.98c-2.41,2.09-4.41,3.82-6.23,5.54c-1.83-1.72-3.85-3.45-6.29-5.54
		c-5.37-4.59-12.72-10.88-24.2-22.41c-1.67-1.67-4.17-4.23-6.72-7.15c-0.62-0.71-1.69-0.78-2.4-0.17c-0.71,0.62-0.78,1.69-0.17,2.4
		c2.61,3,5.18,5.61,6.88,7.31c11.57,11.62,18.98,17.96,24.39,22.59c2.93,2.51,5.24,4.48,7.31,6.53c0.33,0.33,0.76,0.49,1.19,0.49
		c0.43,0,0.87-0.17,1.2-0.49c2.06-2.04,4.35-4.03,7.25-6.54c5.4-4.67,12.8-11.07,24.35-22.77
		C117.27,80.18,129.77,65.74,128.91,51.11z"/>
	<path class="st0" d="M44.59,73.93L54,62.25l14.1,24.9c0.3,0.53,0.87,0.86,1.48,0.86c0.01,0,0.01,0,0.02,0
		c0.62-0.01,1.19-0.35,1.48-0.9L81.3,68.03L86.69,74c0.32,0.36,0.78,0.56,1.26,0.56h10.22c0.94,0,1.7-0.76,1.7-1.7
		s-0.76-1.7-1.7-1.7H88.7l-6.5-7.2c-0.37-0.41-0.92-0.61-1.47-0.55c-0.55,0.07-1.03,0.4-1.29,0.89l-9.9,18.49L55.72,58.39
		c-0.28-0.49-0.78-0.81-1.34-0.86c-0.56-0.04-1.11,0.19-1.46,0.63l-10.47,13H14.48c-0.94,0-1.7,0.76-1.7,1.7s0.76,1.7,1.7,1.7h28.78
		C43.78,74.56,44.26,74.33,44.59,73.93z"/>
</g>
</svg>
