<?xml version="1.0" encoding="utf-8"?>
<!-- Generator: Adobe Illustrator 24.1.3, SVG Export Plug-In . SVG Version: 6.00 Build 0)  -->
<svg version="1.1" id="Icon" xmlns="http://www.w3.org/2000/svg" xmlns:xlink="http://www.w3.org/1999/xlink" x="0px" y="0px"
	 viewBox="0 0 141.73 141.73" style="enable-background:new 0 0 141.73 141.73;" xml:space="preserve">

<path class="st0" d="M116.91,103.86c6-4.4,9.91-11.5,9.91-19.5c0-13.33-10.84-24.17-24.17-24.17c-3.36,0-6.56,0.69-9.46,1.93
	c-1.62-2.16-4.24-4.94-7.12-6.93c5.99-4.4,9.89-11.49,9.89-19.48c0-13.33-10.84-24.17-24.17-24.17S47.62,22.4,47.62,35.72
	c0,7.69,3.61,14.54,9.22,18.97c-3.4,2.04-6.58,5.1-7.62,6.15c-0.11,0.11-0.19,0.23-0.26,0.35c-2.14-0.62-4.4-0.96-6.74-0.96
	c-13.33,0-24.17,10.84-24.17,24.17c0,7.68,3.61,14.54,9.22,18.97c-8.51,5.03-13.69,16.47-13.69,25.12c0,0.94,0.76,1.7,1.7,1.7h50.73
	c0.94,0,1.7-0.76,1.7-1.7c0-8.63-4.16-19.49-11.24-24.58c6.01-4.4,9.91-11.5,9.91-19.5c0-1.21-0.09-2.4-0.26-3.56h12.63
	c-0.17,1.15-0.26,2.33-0.26,3.53c0,7.69,3.61,14.54,9.22,18.97c-8.51,5.05-13.69,16.46-13.69,25.11c0,0.94,0.76,1.7,1.7,1.7h50.73
	c0.94,0,1.7-0.76,1.7-1.7C128.15,119.82,123.99,108.94,116.91,103.86z M51.02,35.72c0-11.45,9.31-20.76,20.76-20.76
	s20.76,9.31,20.76,20.76s-9.31,20.77-20.76,20.77S51.02,47.17,51.02,35.72z M73.56,69.89l-1.74,1.92l-1.76-1.84l0.71-8.02
	c0.02-0.27-0.03-0.54-0.14-0.79l-0.66-1.36c0.6,0.05,1.21,0.08,1.83,0.08c0.62,0,1.23-0.03,1.84-0.08l-0.62,1.42
	c-0.1,0.23-0.14,0.48-0.12,0.72L73.56,69.89z M64.25,126.78H17.06c0.67-7.97,5.88-17.81,13.42-21.27c1.76,0.98,3.65,1.75,5.65,2.27
	l1.39,2.86l-0.73,8.29c-0.04,0.43,0.11,0.86,0.41,1.17l3.35,3.49c0.28,0.29,0.67,0.46,1.08,0.46c0.01,0,0.01,0,0.02,0
	c0.42-0.01,0.81-0.18,1.09-0.49l3.26-3.6c0.28-0.31,0.42-0.72,0.38-1.13l-0.69-8.21l1.09-2.49c2.29-0.44,4.47-1.21,6.49-2.25
	C59.64,109.48,63.72,118.97,64.25,126.78z M43.34,118.43l-1.74,1.92l-1.76-1.84l0.71-8.02c0.02-0.27-0.03-0.54-0.14-0.79l-0.62-1.27
	c0.8,0.08,1.61,0.12,2.44,0.12c0.37,0,0.74-0.01,1.11-0.03l-0.54,1.23c-0.1,0.23-0.14,0.48-0.12,0.72L43.34,118.43z M52.59,102.36
	c-0.17,0.07-0.33,0.16-0.47,0.29c-2.94,1.6-6.32,2.52-9.9,2.52c-11.45,0-20.76-9.31-20.76-20.76s9.31-20.76,20.76-20.76
	s20.76,9.31,20.76,20.76C62.98,92.07,58.79,98.76,52.59,102.36z M65.36,77.43c-2-6.62-6.77-12.05-12.95-14.94
	c2.23-2.13,5.17-4.49,7.65-5.65c1.95,1.09,4.07,1.91,6.31,2.43l1.38,2.84L67,70.39c-0.04,0.43,0.11,0.86,0.41,1.17l3.35,3.49
	c0.28,0.29,0.67,0.46,1.08,0.46c0.01,0,0.01,0,0.02,0c0.42-0.01,0.81-0.18,1.09-0.49l3.26-3.6c0.28-0.31,0.42-0.72,0.38-1.13
	l-0.69-8.21l1.22-2.79c2.01-0.46,3.93-1.16,5.72-2.09c2.66,1.49,5.42,4.18,7.26,6.52c-5.04,3.07-8.87,7.95-10.61,13.72H65.36z
	 M81.89,84.36c0-11.45,9.31-20.76,20.76-20.76s20.76,9.31,20.76,20.76s-9.31,20.77-20.76,20.77S81.89,95.81,81.89,84.36z
	 M103.79,118.43l-1.74,1.92l-1.76-1.84l0.71-8.02c0.02-0.27-0.03-0.54-0.14-0.79l-0.63-1.3c0.8,0.08,1.62,0.12,2.44,0.12
	c0.38,0,0.76-0.01,1.14-0.03l-0.55,1.27c-0.1,0.23-0.14,0.48-0.12,0.72L103.79,118.43z M77.5,126.74
	c0.67-7.97,5.88-17.78,13.43-21.26c1.76,0.98,3.65,1.75,5.64,2.27l1.4,2.89l-0.73,8.29c-0.04,0.43,0.11,0.86,0.41,1.17l3.35,3.49
	c0.28,0.29,0.67,0.46,1.08,0.46c0.01,0,0.01,0,0.02,0c0.42-0.01,0.81-0.18,1.09-0.49l3.26-3.6c0.28-0.31,0.42-0.72,0.38-1.13
	l-0.69-8.21l1.1-2.53c2.29-0.44,4.46-1.21,6.47-2.25c6.36,3.58,10.44,13.09,10.98,20.9H77.5z"/>
</svg>
