<?xml version="1.0" encoding="utf-8"?>
<!-- Generator: Adobe Illustrator 24.1.3, SVG Export Plug-In . SVG Version: 6.00 Build 0)  -->
<svg version="1.1" id="Icon" xmlns="http://www.w3.org/2000/svg" xmlns:xlink="http://www.w3.org/1999/xlink" x="0px" y="0px"
	 viewBox="0 0 141.73 141.73" style="enable-background:new 0 0 141.73 141.73;" xml:space="preserve">

<g>
	<path class="st0" d="M125.54,113.29h-9.62v-47c4.57-1.63,8.52-6.03,7.94-10.98c-0.01-0.11-0.04-0.23-0.08-0.33l-10.25-28.55
		c-0.25-0.69-0.96-1.11-1.68-0.98c-0.03,0-0.06,0.01-0.09,0.02c-3.08,0.25-50.6,0.12-82.12-0.04c0,0,0,0-0.01,0
		c-0.64,0-1.21,0.4-1.42,1L17.96,54.97c-0.04,0.11-0.07,0.22-0.08,0.33c-0.52,4.39,2.54,8.36,6.42,10.34v47.65h-8.11
		c-0.83,0-1.51,0.68-1.51,1.51s0.68,1.51,1.51,1.51h109.34c0.83,0,1.51-0.68,1.51-1.51S126.37,113.29,125.54,113.29z M111.06,28.47
		l9.82,27.35c0.35,4-3.88,7.61-7.83,8.08c-4.29,0.5-10.73-2.68-11.18-6.5l-3.2-28.59c-0.01-0.06-0.02-0.12-0.03-0.18
		C105.72,28.62,109.25,28.58,111.06,28.47z M95.68,28.64c-0.04,0.16-0.05,0.34-0.03,0.51l2.98,26.58c0,0.01,0,0.02,0,0.03
		c0.19,1.87-0.54,3.77-2.07,5.35c-1.51,1.57-3.57,2.59-5.66,2.8c-2.07,0.21-4.41-0.42-6.29-1.7c-1.9-1.29-3.1-3.08-3.29-4.92
		c-0.01-0.08-0.03-0.15-0.05-0.22c0.01-0.16,0.02-0.33,0.02-0.49l-0.16-27.97C87.02,28.63,91.8,28.63,95.68,28.64z M78.13,28.61
		l0.16,27.98c0,4.09-3.33,7.42-7.42,7.42s-7.42-3.33-7.42-7.41l0.29-28.03c2.3,0.01,4.64,0.01,6.97,0.02
		C73.35,28.6,75.82,28.61,78.13,28.61z M60.72,28.57L60.43,56.6c0,0.2,0.02,0.4,0.03,0.6c-0.01,0.04-0.02,0.08-0.03,0.13
		c-0.19,1.84-1.39,3.63-3.29,4.92c-1.88,1.27-4.23,1.92-6.29,1.7c-2.08-0.21-4.15-1.23-5.66-2.8c-1.53-1.58-2.26-3.48-2.07-5.35
		c0.01-0.11,0.01-0.22,0-0.33l2.95-26.3c0.03-0.22,0-0.44-0.06-0.63C50.43,28.53,55.46,28.55,60.72,28.57z M20.86,55.82l9.83-27.37
		c1.96,0.01,6.49,0.03,12.46,0.05c-0.03,0.1-0.06,0.2-0.07,0.31l-3.2,28.58c-0.21,1.74-1.68,3.5-4.05,4.83
		c-2.29,1.28-5.03,1.93-7.14,1.68C24.74,63.43,20.51,59.82,20.86,55.82z M27.32,66.73c0.34,0.07,0.68,0.13,1.01,0.17
		c2.75,0.33,6.1-0.44,8.96-2.04c1.8-1.01,3.21-2.27,4.18-3.65c0.43,0.71,0.94,1.39,1.55,2.03c2,2.07,4.74,3.42,7.52,3.71
		C50.92,66.98,51.3,67,51.67,67c2.46,0,5.01-0.8,7.17-2.26c1.22-0.83,2.22-1.83,2.99-2.94c1.81,3.12,5.18,5.23,9.04,5.23
		c3.87,0,7.25-2.12,9.06-5.27c0.77,1.11,1.77,2.12,3,2.95c2.15,1.46,4.71,2.26,7.17,2.26c0.38,0,0.75-0.02,1.12-0.06
		c2.78-0.29,5.53-1.64,7.52-3.71c0.6-0.62,1.11-1.29,1.53-1.99c2.43,3.43,7.49,5.75,11.82,5.75c0.27,0,0.54-0.03,0.81-0.05v46.36
		h-7.61V75.52c0-0.83-0.68-1.51-1.51-1.51H66.42c-0.83,0-1.51,0.68-1.51,1.51v37.76h-3.45V75.52c0-0.83-0.68-1.51-1.51-1.51h-22
		c-0.83,0-1.51,0.68-1.51,1.51v37.76h-9.12V66.73z M102.27,113.29H67.93V77.03h34.34V113.29z M58.44,113.29H39.47V77.03h18.98
		V113.29z"/>
	<path class="st0" d="M51.42,99.7c0.83,0,1.51-0.68,1.51-1.51v-6.22c0-0.83-0.68-1.51-1.51-1.51s-1.51,0.68-1.51,1.51v6.22
		C49.91,99.02,50.59,99.7,51.42,99.7z"/>
</g>
</svg>
